<svg xmlns="http://www.w3.org/2000/svg" xmlns:xlink="http://www.w3.org/1999/xlink" preserveAspectRatio="xMidYMid" width="49.75" height="60" viewBox="0 0 49.75 60">
  <defs>
    <style>
      .cls-1 {
        fill: gray;
        fill-rule: evenodd;
      }
    </style>
  </defs>
  <path d="M48.676,33.012 L47.613,36.980 L44.997,36.280 L46.061,32.312 L46.416,30.986 L41.080,29.557 L41.782,26.937 L47.117,28.367 L47.121,28.354 L49.737,29.054 L48.676,33.012 ZM38.608,28.971 L41.135,29.648 L40.434,32.264 L37.907,31.587 L35.840,39.303 L33.228,38.603 L37.861,21.310 L42.498,4.007 L45.110,4.707 L40.473,22.010 L38.608,28.971 ZM37.213,2.602 L37.913,-0.010 L43.161,1.396 L42.461,4.008 L37.213,2.602 ZM34.106,13.804 L32.827,18.577 L30.666,26.643 L28.054,25.943 L30.215,17.878 L30.904,15.306 L25.633,13.893 L26.334,11.277 L31.605,12.689 L34.496,1.900 L37.109,2.600 L34.217,13.393 L34.106,13.804 ZM27.019,51.136 L29.634,51.837 L28.912,54.531 L28.212,57.144 L28.193,57.215 L27.446,60.004 L1.065,52.935 L1.789,50.235 L1.831,50.075 L2.491,47.615 L3.192,44.996 L5.804,45.696 L5.102,48.315 L4.443,50.775 L25.597,56.443 L26.297,53.830 L27.019,51.136 ZM24.157,19.131 L22.766,24.322 L20.154,23.622 L21.545,18.431 L22.234,15.859 L16.867,14.421 L17.569,11.802 L22.960,13.246 L22.958,13.253 L25.546,13.946 L24.157,19.131 ZM15.472,19.739 L14.082,24.923 L11.471,24.223 L12.860,19.039 L13.551,16.460 L10.963,15.766 L11.664,13.150 L14.275,13.850 L14.274,13.857 L16.862,14.550 L15.472,19.739 ZM7.540,17.737 L8.241,15.121 L10.853,15.821 L10.152,18.437 L7.540,17.737 ZM5.257,36.978 L4.206,40.901 L3.155,44.822 L0.543,44.122 L1.594,40.202 L2.645,36.278 L5.257,36.978 ZM2.607,36.107 L-0.001,35.408 L2.448,26.266 L4.899,17.120 L7.507,17.819 L5.057,26.965 L2.607,36.107 ZM31.072,46.593 L33.633,47.279 L34.331,44.677 L35.033,42.057 L37.655,42.760 L36.953,45.379 L36.252,47.995 L33.684,47.307 L32.986,49.913 L32.285,52.529 L29.669,51.828 L30.370,49.212 L31.072,46.593 ZM39.093,37.472 L41.621,38.149 L42.300,35.615 L44.918,36.317 L44.217,38.936 L41.686,38.258 L41.007,40.793 L40.305,43.412 L37.689,42.711 L38.391,40.092 L39.093,37.472 Z" class="cls-1"/>
</svg>
